<?xml version="1.0" standalone="no"?>
<!DOCTYPE svg PUBLIC "-//W3C//DTD SVG 20010904//EN"
 "http://www.w3.org/TR/2001/REC-SVG-20010904/DTD/svg10.dtd">
<svg version="1.0" xmlns="http://www.w3.org/2000/svg"
 width="945.000000pt" height="985.000000pt" viewBox="0 0 945.000000 985.000000"
 preserveAspectRatio="xMidYMid meet">

<g transform="translate(0.000000,985.000000) scale(0.100000,-0.100000)"
fill="#000000" stroke="none">
<path d="M1960 9824 c-111 -30 -209 -113 -263 -224 l-32 -65 -3 -257 -3 -258
-643 0 c-694 0 -708 -1 -799 -55 -89 -52 -163 -153 -186 -255 -15 -63 -15
-8327 0 -8390 27 -119 108 -218 223 -272 l71 -33 4405 0 4405 0 70 33 c116 55
188 141 221 267 11 41 14 766 14 4200 0 2804 -4 4164 -11 4195 -34 146 -153
265 -300 299 -27 7 -290 11 -686 11 l-642 0 -3 258 -3 257 -32 65 c-35 71
-105 149 -168 186 -84 49 -143 56 -438 52 l-272 -3 -68 -32 c-122 -58 -213
-174 -237 -302 -5 -29 -10 -150 -10 -267 l0 -214 -1840 0 -1840 0 0 214 c0
117 -5 238 -10 267 -24 128 -115 244 -237 302 l-68 32 -280 2 c-224 2 -291 -1
-335 -13z m520 -1009 l0 -615 -205 0 -205 0 0 615 0 615 205 0 205 0 0 -615z
m4910 0 l0 -615 -205 0 -205 0 0 615 0 615 205 0 205 0 0 -615z m-5730 -438
c0 -184 3 -245 16 -288 42 -145 168 -259 320 -289 94 -18 556 -9 612 13 116
45 213 141 254 253 20 53 22 83 26 302 l4 242 1838 0 1838 0 4 -242 c3 -220 6
-249 25 -302 43 -113 131 -203 247 -250 46 -18 78 -21 306 -24 276 -4 340 3
423 45 98 49 181 148 211 252 13 43 16 104 16 288 l0 233 615 0 615 0 0 -715
0 -715 -4300 0 -4300 0 0 715 0 715 615 0 615 0 0 -233z m7370 -4782 l0 -3175
-4300 0 -4300 0 0 3175 0 3175 4300 0 4300 0 0 -3175z"/>
<path d="M1660 3595 l0 -2355 3070 0 3070 0 0 2355 0 2355 -3070 0 -3070 0 0
-2355z m1430 1435 l0 -510 -510 0 -510 0 0 510 0 510 510 0 510 0 0 -510z
m1438 -2 l2 -508 -515 0 -515 0 0 510 0 510 513 -2 512 -3 3 -507z m1432 2 l0
-510 -515 0 -515 0 0 503 c0 277 3 507 7 510 3 4 235 7 515 7 l508 0 0 -510z
m1430 0 l0 -510 -510 0 -510 0 0 510 0 510 510 0 510 0 0 -510z m-4300 -1435
l0 -515 -510 0 -510 0 0 515 0 515 510 0 510 0 0 -515z m1435 0 l0 -510 -512
-3 -513 -2 0 508 c0 280 3 512 7 515 3 4 234 6 512 5 l506 -3 0 -510z m1433
-3 l2 -512 -512 2 -513 3 -3 500 c-1 275 0 506 3 513 3 10 111 12 512 10 l508
-3 3 -513z m1432 3 l0 -515 -510 0 -510 0 0 515 0 515 510 0 510 0 0 -515z
m-4300 -1435 l0 -510 -510 0 -510 0 0 510 0 510 510 0 510 0 0 -510z m1440 0
l0 -510 -515 0 -515 0 0 510 0 510 515 0 515 0 0 -510z m1430 0 l0 -510 -515
0 -515 0 0 510 0 510 515 0 515 0 0 -510z m1430 0 l0 -510 -510 0 -510 0 0
510 0 510 510 0 510 0 0 -510z"/>
</g>
</svg>
