<?xml version="1.0" standalone="no"?>
<!DOCTYPE svg PUBLIC "-//W3C//DTD SVG 20010904//EN"
 "http://www.w3.org/TR/2001/REC-SVG-20010904/DTD/svg10.dtd">
<svg version="1.0" xmlns="http://www.w3.org/2000/svg"
 width="980.000000pt" height="980.000000pt" viewBox="0 0 980.000000 980.000000"
 preserveAspectRatio="xMidYMid meet">

<g transform="translate(0.000000,980.000000) scale(0.100000,-0.100000)"
fill="#000000" stroke="none">
<path d="M4895 4900 l-4900 -4900 415 0 415 0 4488 4488 4487 4487 -2 413 -3
412 -4900 -4900z"/>
<path d="M6655 3140 l-3140 -3140 415 0 415 0 2728 2728 2727 2727 -2 413 -3
412 -3140 -3140z"/>
<path d="M8415 1380 l-1380 -1380 415 0 415 0 968 968 967 967 -2 413 -3 412
-1380 -1380z"/>
</g>
</svg>
